<?xml version="1.0" encoding="UTF-8"?>
<svg xmlns="http://www.w3.org/2000/svg" width="13" height="13">
<path
   id="shape b" fill="#c0c0c0" stroke="none"
   d="M 1,1 L 1,3 L 5,3 L 5,5.9 L 6.3,5.9 L 6.3,7.7 L 8.1,7.7 L 8.1,9  11,9  11,13  13,13  13,1 z"/>
<path
   id="shape" fill="#3f3f3f" stroke="none"
   d="M 0,0 L 0,2 L 4,2 L 4,4.9 L 5.3,4.9 L 5.3,6.7 L 7.1,6.7 L 7.1,8  10,8  10,12  12,12  12,0 z"/>
<path
   id="w1" fill="black"
   d="M 11.2,0.79 11.53,0.46 C 11.14,0.3 10.6,0.75 10.33,1.04 L 10.41,1.12 C 10.84,0.75 11.07,0.73 11.2,0.79 z"/>
<path
   id="w2" fill="black"
   d="m 11.28,0.87 0.33,-0.34 c 0.16,0.4 -0.29,0.94 -0.58,1.22 L 10.95,1.67 c 0.37,-0.44 0.4,-0.66 0.33,-0.8 z"/>
<path
   id="t1" fill="#202020"
   d="m 5.56,3.98 -0.92,0.92 0.66,0 0,0.66 0.92,-0.92 0,-0.66 -0.66,0 z"/>
<path
   id="t2" fill="#202020"
   d="m 7.36,5.78 -0.92,0.92 0.66,0 0,0.66 0.92,-0.92 0,-0.66 -0.66,0 z"/>
</svg>